<?xml version="1.0" encoding="UTF-8" standalone="no"?>
<svg xmlns="http://www.w3.org/2000/svg" xmlns:xlink="http://www.w3.org/1999/xlink" width="113.672mm" height="164.526mm" viewBox="65.237022 -195.815887 113.671837 164.526093">
      <defs>
    <linearGradient id="myGradient" gradientTransform="rotate(90)">
      <stop offset="5%" stop-color="#42aaff" stop-opacity="0.5"/>
      <stop offset="95%" stop-color="#000000" stop-opacity="0.5"/>
    </linearGradient>
  </defs>
    <path transform="matrix(0.105236,0,0,-0.105236,65.228714,-31.249962)" style="stroke:#42aaff;stroke-width:0.05mm;fill:url(#myGradient)" d="M305,1563.335571C275.615784,1562.074219,249.843765,1559.918579,228,1556.895142C204.259705,1553.609253,179.482895,1544.427856,161.223801,1532.150513C143.533188,1520.255371,130.973267,1505.985474,120.568939,1485.960693C114.306702,1473.907959,112.743866,1467.743896,113.679832,1458.789063C114.209305,1453.723389,114.905151,1452.003906,117.659348,1448.955322C122.689659,1443.387329,127.188057,1442.474976,148.80397,1442.638428L167.107941,1442.776733L165.30397,1440.748291C164.311783,1439.63269,157.875,1433.753296,151,1427.682983C127.069092,1406.552979,122.770683,1402.4552,116.85717,1395.133179C106.51606,1382.328979,101.806557,1370.985474,95.628021,1344C86.519341,1304.216797,82.373459,1266.594727,81.35733,1214.5C80.733047,1182.494263,81.54425,1168.237671,87.587921,1105C91.215225,1067.045898,104.91423,955.548279,110.379128,919.5C113.095329,901.583069,113.024101,901.215576,106.28212,898.362C102.159576,896.617126,77.506111,896.538086,57.187389,898.204712C49.109325,898.867249,36.650002,899.429749,29.5,899.454712C14.78266,899.505981,11.114242,898.310974,5.15532,891.524109L2,887.93042L2,872.298401L2,856.666382L7.113815,847.083191C13.392127,835.317749,25.790794,815.798279,33.642395,805.318665C40.653408,795.960999,69.515511,766.686829,79.897888,758.402771C103.333511,739.703552,126.08709,725.800659,150.5,715.263428C176.025665,704.245911,201.813644,697.542847,216.126831,698.205017C227.969299,698.75293,236.256592,702.719055,241.834106,710.507996C245.487411,715.609802,250.826782,726.814697,254.529099,737.149109L256.194641,741.798218L266.347321,742.457581C291.245239,744.074646,316.813721,746.241028,332.5,748.062561C363.198151,751.627319,431.468536,752.960327,436.814301,750.099365C437.815582,749.563538,442.429474,745.91394,447.067413,741.989258C463.7034,727.91156,483.972504,717.794617,503.090454,714.026367C507.25769,713.204956,509.446777,712.106689,511.689331,709.712219C519.385986,701.494202,519.623047,698.69696,513.961914,682.893738C508.779022,668.425354,505.286377,648.635742,503.8255,625.459961C502.612976,606.224426,503.32785,580.130005,506.584839,524.735901C507.482697,509.465637,507.927368,495.426422,507.573029,493.537598C506.643097,488.580597,498.898895,478.831604,491.486755,473.286987C487.967133,470.654144,478.88028,464.94519,471.293732,460.600433C454.07428,450.739014,443.231354,443.074158,438.307831,437.282745C428.143768,425.327026,423.984039,414.271637,424.017365,399.302582C424.042999,387.787872,426.317596,378.895538,432.406586,366.505798C436.885437,357.392334,439.433533,353.723938,447.22641,345.170349C461.414398,329.597382,475.316193,317.220123,494.370239,303.196533C499.260071,299.597656,516.430725,290.115234,521.377686,288.281769C523.833923,287.371399,526.813843,285.894714,527.999695,285.000214C530.056396,283.448853,530.100281,283.077179,528.950745,276.936951C526.454285,263.602112,528.094604,143.6763,531.001526,127C532.63446,117.632065,533.866577,104.460976,535.491699,79C537.683777,44.656635,539.320862,37.106022,546.658691,27.495951C550.719238,22.178051,560.323608,15.526863,565.22583,14.637943C576.939636,12.51387,613.90094,9.867249,632,9.856565C655.444946,9.842724,664.615479,11.104649,679.355835,16.37306C705.394409,25.679604,722.424988,41.920799,731.888489,66.470787L735.754517,76.5L734.979431,97.5C734.330872,115.071426,733.790955,120.083801,731.672241,128.20079C728.878723,138.903198,720.971497,158.495239,717.837646,162.479294C716.735718,163.880112,710.749878,172.621048,704.535767,181.903595C693.024048,199.099548,687.106873,211.434692,683.533936,225.684906C681.279114,234.678116,679.079224,253.767853,678.350769,270.662415L677.689453,286L702.094727,286.026123C744.893921,286.07196,811.39093,287.875244,847.5,289.969299C866.75,291.085663,894.424988,292.677704,909,293.507172C956.621765,296.217346,959.715698,296.605988,974.452637,301.728668C996.170654,309.278015,1002.720398,312.84137,1010.819702,321.514008C1019.318481,330.61441,1025.884766,343.251373,1029.636108,357.726318C1032.010864,366.889587,1032.139282,368.624176,1031.692871,385.5C1031.43103,395.399994,1030.766846,404.638153,1030.217041,406.029236C1029.667236,407.420319,1026.477173,411.582153,1023.128113,415.27774C1016.445496,422.651764,1015.52063,424.829468,1015.601807,433C1015.631836,436.024994,1015.771362,446.613708,1015.911865,456.530426C1016.16217,474.192749,1016.110657,474.703186,1013.389465,481.530426C1011.209412,486.999847,1009.08551,490.060516,1003.521729,495.75L996.432007,503L988.366028,503C981.040955,503,979.930054,502.731934,976.271301,500.081573C972.483765,497.337921,968.086609,491.905151,959.215027,479.008331L955.437378,473.516663L943.468689,470.248474C930.708008,466.764038,896.428833,459.767059,884,458.109894C870.871277,456.359406,860.543701,455.901306,814,455.004913C773.079529,454.216827,765.832825,453.819183,742,451.054016C727.424988,449.363007,709.424988,447.695892,702,447.349365C687.912659,446.691895,668.293823,447.582336,666.029175,448.981964C664.955933,449.645294,665.208313,454.093689,667.40033,473.147461C668.877991,485.991364,670.629883,501.845795,671.293457,508.379517L672.5,520.259033L733.052734,551.379517C766.35675,568.495789,807.081726,589.662964,823.552734,598.417664C850.386902,612.680664,862.943848,619.522888,899,639.528625C904.775024,642.732849,914.900024,648.343384,921.5,651.996399C938.382141,661.340515,975.878906,683.237488,986,689.662415C1035.558472,721.122498,1058.172974,737.302429,1070.756104,750.302795C1074.746948,754.425964,1078.631104,759.27124,1079.387451,761.070129C1080.964966,764.822083,1080.824585,765.440796,1075.202515,779.5C1073.003174,785,1068.644409,797.599976,1065.516479,807.5C1062.388428,817.400024,1058.471191,829.775024,1056.811401,835C1049.298218,858.651306,1037.584961,873.2901,1019.624146,881.475037C1006.712402,887.359131,1003.059692,887.57605,966.5,884.630249C924.562988,881.251099,891.343567,880.147766,812.5,879.515259C712.893921,878.716248,678.116028,877.686829,657.636108,874.931458C647.687744,873.593018,646.81134,873.892944,648.092102,878.197571C648.632568,880.013916,649.351013,886.118408,649.688782,891.763123L650.302795,902.026184L643.812195,908.763123C635.987061,916.885071,632.971008,921.52533,628.877197,931.740601C623.308411,945.636353,623.803406,962.249878,630.92572,1000.5C637.908752,1038.002197,639.596375,1053.34082,638.012268,1064.910522C636.924072,1072.858276,636.967346,1073.233887,639.589233,1078.592896C642.12146,1083.768555,642.250183,1084.691895,641.709473,1093.801514C641.1521,1103.191406,638.137573,1115.697754,634.387451,1124.178223C632.276245,1128.952637,625.572266,1132.001831,616.544678,1132.293701C608.659485,1132.548584,605.745178,1130.718018,601.63562,1122.928955C598.803284,1117.560669,598.77832,1117.362793,599.402405,1105.2323C599.93396,1094.901367,599.723816,1091.744019,598.071411,1085.2323C593.30072,1066.432007,589.331604,1035.476074,588.001099,1006.691284C586.737488,979.355347,583.564453,955.348572,578.951599,938.223389C577.873535,934.221252,574.683105,926.346252,571.861755,920.723389C567.380676,911.792847,565.510132,909.298645,557.070068,901C551.756042,895.775024,544.809448,889.963257,541.633179,888.084961C536.537292,885.071533,534.661194,884.570618,525.679077,883.825378C512.979919,882.77179,483.568695,883.525879,439.5,886.035095C420.799988,887.099792,397.850006,888.398376,388.5,888.920776C373.831573,889.740295,369.374146,890.417297,356,893.856873C329.104553,900.773926,324.873383,901.447266,308.5,901.415405C295.792114,901.390686,292.506744,901.053101,287,899.205994C277.303711,895.953735,277.530548,895.839417,275.005188,905.25C270.906464,920.52356,268.256409,924.61554,261.794373,925.648865C258.996948,926.096191,257.842438,926.828064,257.486206,928.380005C256.075562,934.525146,253.860367,970.704346,252.978531,1002C251.921707,1039.506226,250.233109,1081.844116,248.930298,1103.5C247.430573,1128.429321,246.664078,1247.325195,247.876251,1267C250.590408,1311.053345,258.813477,1379.330444,263.111481,1393.5C266.153961,1403.530273,270.200378,1411.01709,275.703857,1416.798584L280.5,1421.837158L288.5,1420.955811C321.549622,1417.314697,337.327423,1414.755249,356.377014,1409.944946C375.467041,1405.12439,380.931396,1403.338867,396.266205,1396.911255C427.474579,1383.830322,447.513916,1368.987305,468.633392,1343.309448C473.408722,1337.503418,478.061462,1332.803223,479.301239,1332.532837C481.985291,1331.947388,488.539917,1331.587769,492.201874,1331.824951C495.58725,1332.044312,501.062653,1337.546143,504.146759,1343.827515L506.440887,1348.5L506.470459,1397C506.502106,1448.980225,505.993958,1456.375244,501.376404,1471.130493C494.933197,1491.719604,473.420868,1513.076538,442.260742,1529.819214C419.494446,1542.051758,394.842255,1550.66687,362,1557.867676C334.356079,1563.928711,329.552216,1564.389526,305,1563.335571z"/>
    <path transform="matrix(0.105236,0,0,-0.105236,65.228714,-31.249962)" style="stroke:#000000;stroke-width:0.05mm;fill:#ffffff" d="M903.453369,715.953613C912.77771,715.388733,920.578674,714.754639,920.788818,714.544495C922.738403,712.59491,909.552673,697.393127,898.954468,689.371704C891.563293,683.777527,866.970398,667.794067,853.5,659.829712C847.450012,656.252686,835.299988,649.036194,826.5,643.793152C812.022095,635.167114,792.38623,623.672668,773.5,612.768005C769.650024,610.545044,764.25,607.358521,761.5,605.686829C758.75,604.015198,749.974976,598.843201,742,594.193542C713.795105,577.749268,698.439758,568.664612,693.39209,565.435669C686.485596,561.017761,673.918701,554.747925,673.270142,555.396545C672.981384,555.685242,673.252502,559.33252,673.87262,563.501587C675.742737,576.075623,675.204773,599.434082,672.433167,626C669.393005,655.139526,668.994019,675.400208,671.259094,685.617004C673.856262,697.331726,682.356873,712.007385,687.783386,714.14502C689.277527,714.733643,702.424988,715.542419,717,715.942322C758.572693,717.08313,884.682861,717.090759,903.453369,715.953613z"/>
    <path transform="matrix(0.105236,0,0,-0.105236,65.228714,-31.249962)" style="stroke:#000000;stroke-width:0.05mm;fill:#ffffff" d="M510.909271,443.75C510.457092,441.412506,510.067505,436.068756,510.043549,431.875C510.019592,427.681244,509.71875,422.84375,509.375,421.125C508.793335,418.216614,508.457092,418,504.524231,418C495.261719,418,491.155945,421.57019,493.004791,428.016724C495.11319,435.368225,500.734161,442.178497,508.437408,446.714569C511.589935,448.570953,511.794464,448.325684,510.909271,443.75z"/>
    <path transform="matrix(0.105236,0,0,-0.105236,65.228714,-31.249962)" style="stroke:#000000;stroke-width:0.05mm;fill:#ffffff" d="M0.078947,1.416667C0.126931,0.251724,0.363888,0.014767,0.683114,0.8125C0.971985,1.534375,0.936458,2.396875,0.604167,2.729167C0.271875,3.061458,0.035526,2.470833,0.078947,1.416667z"/>
</svg>
